<?xml version="1.0" encoding="UTF-8" standalone="no"?>
<svg width="767px" height="586px" viewBox="0 0 767 586" version="1.1" xmlns="http://www.w3.org/2000/svg" xmlns:xlink="http://www.w3.org/1999/xlink" xmlns:sketch="http://www.bohemiancoding.com/sketch/ns">
    <title>Slice 1</title>
    <description>Created with Sketch (http://www.bohemiancoding.com/sketch)</description>
    <defs></defs>
    <g id="Page-1" stroke="none" stroke-width="1" fill="none" fill-rule="evenodd" sketch:type="MSPage">
        <rect id="Rectangle-1" fill="#2A2A2A" sketch:type="MSShapeGroup" x="0" y="0" width="767" height="586" rx="16"></rect>
        <rect id="Rectangle-1" fill="#070707" sketch:type="MSShapeGroup" x="29" y="64" width="708" height="493" rx="8"></rect>
        <path d="M41.5,41 C47.2989902,41 52,36.2989902 52,30.5 C52,24.7010098 47.2989902,20 41.5,20 C35.7010098,20 31,24.7010098 31,30.5 C31,36.2989902 35.7010098,41 41.5,41 Z" id="Oval-1" fill="#FF5454" sketch:type="MSShapeGroup"></path>
        <path d="M70.5,41 C76.2989902,41 81,36.2989902 81,30.5 C81,24.7010098 76.2989902,20 70.5,20 C64.7010098,20 60,24.7010098 60,30.5 C60,36.2989902 64.7010098,41 70.5,41 Z" id="Oval-1" fill="#F3FF51" sketch:type="MSShapeGroup"></path>
        <path d="M100.5,41 C106.29899,41 111,36.2989902 111,30.5 C111,24.7010098 106.29899,20 100.5,20 C94.7010098,20 90,24.7010098 90,30.5 C90,36.2989902 94.7010098,41 100.5,41 Z" id="Oval-1" fill="#2EED64" sketch:type="MSShapeGroup"></path>
        <rect id="Rectangle-2" fill="#E22257" sketch:type="MSShapeGroup" x="51" y="90" width="660" height="22" rx="11"></rect>
        <rect id="Rectangle-2" fill="#D8D8D8" sketch:type="MSShapeGroup" x="51" y="130" width="636" height="22" rx="11"></rect>
        <rect id="Rectangle-2" fill="#00D5FF" sketch:type="MSShapeGroup" x="51" y="170" width="260" height="22" rx="11"></rect>
        <rect id="Rectangle-2" fill="#00AAFF" sketch:type="MSShapeGroup" x="51" y="210" width="596" height="22" rx="11"></rect>
        <rect id="Rectangle-2" fill="#7A15A0" sketch:type="MSShapeGroup" x="51" y="250" width="430" height="22" rx="11"></rect>
        <rect id="Rectangle-2" fill="#FF5C5C" sketch:type="MSShapeGroup" x="51" y="340" width="660" height="22" rx="11"></rect>
        <rect id="Rectangle-2" fill="#E22257" sketch:type="MSShapeGroup" x="51" y="380" width="636" height="22" rx="11"></rect>
        <rect id="Rectangle-2" fill="#9B9B9B" sketch:type="MSShapeGroup" x="51" y="420" width="260" height="22" rx="11"></rect>
        <rect id="Rectangle-2" fill="#00AAFF" sketch:type="MSShapeGroup" x="51" y="460" width="596" height="22" rx="11"></rect>
        <rect id="Rectangle-2" fill="#FFFFFF" sketch:type="MSShapeGroup" x="51" y="500" width="430" height="22" rx="11"></rect>
    </g>
</svg>