<?xml version="1.0" encoding="UTF-8" standalone="no"?>
<svg width="717px" height="696px" viewBox="0 0 717 696" version="1.1" xmlns="http://www.w3.org/2000/svg" xmlns:xlink="http://www.w3.org/1999/xlink" xmlns:sketch="http://www.bohemiancoding.com/sketch/ns">
    <title>development</title>
    <description>Created with Sketch (http://www.bohemiancoding.com/sketch)</description>
    <defs></defs>
    <g id="Page-1" stroke="none" stroke-width="1" fill="none" fill-rule="evenodd" sketch:type="MSPage">
        <g id="Layer-1" sketch:type="MSLayerGroup" transform="translate(1.000000, 1.000000)">
            <g id="layer1" sketch:type="MSShapeGroup">
                <path d="M223.514983,524.690295 L247.991101,542.631816 L579.768483,140.22949 L622.225433,140.229491 L685.829024,47.9589414 L626.000335,-0.0927139159 L547.134318,81.2790158 L555.293353,122.28797 L223.514983,524.690295 Z" id="path3590" fill="#828A95"></path>
                <path d="M115.418393,11.3580023 L187.651001,79.148011 L169.39801,167.810029 L78.140014,188.660981 L7.4636049,119.990559 C7.4636049,119.990559 -20.589966,190.901033 31.190063,240.82303 C87.030029,294.649019 187.647033,261.67801 195.468994,261.67801 L583.981018,642.369996 C583.981018,642.369996 646.57605,707.549928 696.118042,650.189942 C745.660034,592.822022 683.05603,548.515992 683.05603,548.515992 L258.052002,199.091035 C258.052002,199.091035 307.598023,113.049012 247.626038,47.862001 C218.251038,17.268007 157.935419,-7.60299589 115.418391,11.3580021 L115.418393,11.3580023 Z M643.957031,553.706055 C671.317993,553.706055 693.494018,575.911011 693.494018,603.271973 C693.494018,630.630005 671.317993,652.809937 643.957031,652.809937 C616.595031,652.809937 594.419006,630.630005 594.419006,603.271973 C594.419006,575.911011 616.595031,553.706055 643.957031,553.706055 L643.957031,553.706055 Z" id="path3594" fill="#828A95"></path>
                <path d="M477.006028,337.462431 L458.010496,381.871255 C458.010496,381.871255 438.219299,364.2922 414.162973,382.370933 C390.106589,400.448845 408.983144,425.668323 408.983144,425.668323 L201.033949,676.981443 C201.033949,676.981443 152.92031,713.133653 107.325186,682.498483 C61.7329103,651.863313 75.9341301,601.779595 75.9341301,601.779595 L292.291702,348.78621 C292.291702,348.78621 320.798769,362.132023 336.748462,343.192954 C352.697166,324.253008 342.640239,287.951925 342.640239,287.951925 L382.144473,266.570749 L477.006028,337.462431 Z" id="path3592" fill="#262A30"></path>
            </g>
        </g>
    </g>
</svg>