<?xml version="1.0" encoding="UTF-8" standalone="no"?>
<svg width="950px" height="745px" viewBox="0 0 950 745" version="1.1" xmlns="http://www.w3.org/2000/svg" xmlns:xlink="http://www.w3.org/1999/xlink" xmlns:sketch="http://www.bohemiancoding.com/sketch/ns">
    <title>shopping_cart</title>
    <description>Created with Sketch (http://www.bohemiancoding.com/sketch)</description>
    <defs></defs>
    <g id="Page-1" stroke="none" stroke-width="1" fill="none" fill-rule="evenodd" sketch:type="MSPage">
        <g id="shopping_cart" sketch:type="MSLayerGroup" transform="translate(-3.000000, -3.000000)">
            <g id="Page-1" sketch:type="MSShapeGroup">
                <path d="M174.085735,86.6320065 L371.097733,599.865808 C371.209165,600.156099 371.327691,600.441577 371.453035,600.722122 C373.22069,608.219703 379.95456,613.799988 387.992282,613.799988 L389,613.799988 L389,690.00769 C389,693.871559 390.566578,697.369637 393.099868,699.901747 L393.099153,699.900192 C395.632943,702.43324 399.134522,704 403.005035,704 L831.994965,704 C839.729732,704 846,697.734727 846,690.005029 L846,684.994971 C846,677.265762 839.735201,671 831.994965,671 L417,671 L417,613.799988 L843.007718,613.799988 C845.229704,613.799988 847.352079,613.373602 849.297448,612.598153 C854.860359,610.852276 859.378641,606.286519 860.785218,600.193964 L951.94044,205.357321 C953.831873,197.164624 949.458306,188.988837 941.954597,185.854204 L941.954597,185.854204 C939.779104,184.591001 937.287893,183.79287 934.607209,183.605418 L932.718951,183.473378 L931.397567,183.168313 C929.219829,182.665542 927.043169,182.606128 924.962071,182.930964 L884.839697,180.125335 L884.715716,179.802354 L884.023081,180.068231 L237.588791,134.865142 L208.902267,60.1341917 C207.76153,57.1624701 205.877441,54.6950221 203.543609,52.8627691 C201.508619,50.9712721 198.980728,49.553253 196.095688,48.8339317 L66.0650316,16.4136478 C56.9581252,14.143041 47.7354891,19.6823064 45.4647339,28.7898083 L43.5255841,36.5673133 C41.2552603,45.6730847 46.8023994,54.8967066 55.904312,57.1660683 L174.085735,86.6320065 L174.085735,86.6320065 Z M717.371929,558.164902 L693.410229,495.742539 L668.71876,540.287129 L680.815413,571.799988 L709.813878,571.799988 L717.371929,558.164902 L717.371929,558.164902 Z M750.822939,497.817684 L726.861239,435.395321 L704.169088,476.333045 L728.130788,538.755408 L750.822939,497.817684 L750.822939,497.817684 Z M758.775813,518.53563 L779.222084,571.799988 L740.815413,571.799988 L736.083662,559.473354 L758.775813,518.53563 L758.775813,518.53563 Z M784.948582,436.253393 L760.986882,373.831031 L737.620097,415.985827 L761.581797,478.40819 L784.948582,436.253393 L784.948582,436.253393 Z M792.901456,456.971339 L813.589867,510.866491 L790.223082,553.021288 L769.534671,499.126136 L792.901456,456.971339 L792.901456,456.971339 Z M795.70744,416.843899 L771.74574,354.421537 L796.211158,310.284755 L820.172858,372.707118 L795.70744,416.843899 L795.70744,416.843899 Z M803.660315,437.561845 L824.348725,491.456997 L848.814143,447.320215 L828.125732,393.425063 L803.660315,437.561845 L803.660315,437.561845 Z M891.299564,244.391143 L882.735406,222.080748 L846.507663,219.547457 L841.806421,228.028723 L865.768121,290.451086 L891.299564,244.391143 L891.299564,244.391143 Z M892.034729,278.130182 L880.393843,328.552396 L873.720995,311.169032 L892.034729,278.130182 L892.034729,278.130182 Z M830.931716,353.297624 L806.970016,290.875261 L831.047562,247.438217 L855.009263,309.86058 L830.931716,353.297624 L830.931716,353.297624 Z M838.884591,374.015569 L858.250538,424.465588 L873.555116,358.17418 L862.962137,330.578526 L838.884591,374.015569 L838.884591,374.015569 Z M902.885384,223.489772 L901.447139,223.3892 L902.058423,224.981649 L902.885384,223.489772 L902.885384,223.489772 Z M650.007028,538.978677 L627.0506,479.175137 L602.35913,523.719727 L620.815413,571.799988 L631.813878,571.799988 L650.007028,538.978677 L650.007028,538.978677 Z M657.959902,559.696623 L662.605948,571.799988 L651.250897,571.799988 L657.959902,559.696623 L657.959902,559.696623 Z M685.457355,475.024594 L662.500927,415.221054 L637.809458,459.765643 L660.765886,519.569183 L685.457355,475.024594 L685.457355,475.024594 Z M718.908364,414.677375 L695.951936,354.873836 L673.259785,395.81156 L696.216213,455.6151 L718.908364,414.677375 L718.908364,414.677375 Z M753.034008,353.113085 L730.07758,293.309545 L706.710795,335.464342 L729.667223,395.267881 L753.034008,353.113085 L753.034008,353.113085 Z M763.792866,333.703591 L740.836438,273.900051 L765.301856,229.763269 L788.258284,289.566809 L763.792866,333.703591 L763.792866,333.703591 Z M799.017142,270.157315 L777.744058,214.739038 L819.619562,217.667258 L823.094688,226.720272 L799.017142,270.157315 L799.017142,270.157315 Z M583.647398,522.411275 L562.140665,466.384321 L537.449196,510.92891 L558.955929,566.955865 L583.647398,522.411275 L583.647398,522.411275 Z M591.600272,543.129221 L602.605948,571.799988 L575.707807,571.799988 L591.600272,543.129221 L591.600272,543.129221 Z M619.097725,458.457192 L597.590993,402.430237 L572.899523,446.974827 L594.406256,503.001781 L619.097725,458.457192 L619.097725,458.457192 Z M654.548053,394.503108 L633.04132,338.476154 L608.349851,383.020743 L629.856584,439.047698 L654.548053,394.503108 L654.548053,394.503108 Z M687.999062,334.15589 L666.492329,278.128935 L643.800178,319.06666 L665.306911,375.093614 L687.999062,334.15589 L687.999062,334.15589 Z M722.124706,272.591599 L700.617973,216.564645 L677.251187,258.719441 L698.75792,314.746396 L722.124706,272.591599 L722.124706,272.591599 Z M755.071708,213.153633 L716.482239,210.455194 L732.883564,253.182105 L755.071708,213.153633 L755.071708,213.153633 Z M518.737463,509.620459 L498.049053,455.725307 L469.717214,506.837298 L490.405624,560.73245 L518.737463,509.620459 L518.737463,509.620459 Z M526.690338,530.338404 L542.605948,571.799988 L503.707807,571.799988 L526.690338,530.338404 L526.690338,530.338404 Z M554.187791,445.666375 L533.49938,391.771223 L508.807911,436.315813 L529.496322,490.210965 L554.187791,445.666375 L554.187791,445.666375 Z M589.638118,381.712291 L568.949708,327.81714 L544.258239,372.361729 L564.946649,426.256881 L589.638118,381.712291 L589.638118,381.712291 Z M625.088446,317.758208 L604.400035,263.863056 L579.708566,308.407646 L600.396976,362.302797 L625.088446,317.758208 L625.088446,317.758208 Z M658.539455,257.41099 L638.419421,204.99651 L637.082129,204.902998 L615.158893,244.453562 L635.847304,298.348714 L658.539455,257.41099 L658.539455,257.41099 Z M685.758367,208.306772 L657.131154,206.304962 L669.298313,238.001496 L685.758367,208.306772 L685.758367,208.306772 Z M451.005481,505.528846 L432.860691,458.260053 L414.07761,492.145628 L432.2224,539.414422 L451.005481,505.528846 L451.005481,505.528846 Z M458.958355,526.246792 L476.444589,571.799988 L444.654054,571.799988 L440.175274,560.132368 L458.958355,526.246792 L458.958355,526.246792 Z M414.270788,571.799988 L405.312364,571.799988 L390.833013,534.07999 L403.318752,511.555122 L421.463542,558.823916 L414.270788,571.799988 L414.270788,571.799988 Z M490.096179,435.007361 L471.951389,387.738567 L443.619549,438.850559 L461.764339,486.119352 L490.096179,435.007361 L490.096179,435.007361 Z M525.546506,371.053277 L507.401716,323.784484 L482.710247,368.329073 L500.855037,415.597867 L525.546506,371.053277 L525.546506,371.053277 Z M560.996834,307.099194 L542.852044,259.8304 L518.160574,304.37499 L536.305364,351.643783 L560.996834,307.099194 L560.996834,307.099194 Z M596.447161,243.14511 L580.241655,200.928324 L575.678856,200.609262 L553.610902,240.420906 L571.755692,287.6897 L596.447161,243.14511 L596.447161,243.14511 Z M618.370397,203.594546 L598.953388,202.236776 L607.206019,223.735616 L618.370397,203.594546 L618.370397,203.594546 Z M424.907817,437.542107 L404.987131,385.646946 L386.20405,419.532522 L406.124736,471.427683 L424.907817,437.542107 L424.907817,437.542107 Z M382.880139,513.362044 L362.959453,461.466884 L375.445192,438.942016 L395.365877,490.837177 L382.880139,513.362044 L382.880139,513.362044 Z M463.998515,367.020621 L444.077829,315.125461 L415.745989,366.237452 L435.666675,418.132613 L463.998515,367.020621 L463.998515,367.020621 Z M499.448842,303.066538 L479.528156,251.171377 L454.836687,295.715967 L474.757373,347.611127 L499.448842,303.066538 L499.448842,303.066538 Z M534.899169,239.112454 L518.586689,196.616989 L510.097208,196.023347 L490.287014,231.761883 L510.2077,283.657044 L534.899169,239.112454 L534.899169,239.112454 Z M556.967124,199.300811 L537.298421,197.925441 L545.658028,219.70296 L556.967124,199.300811 L556.967124,199.300811 Z M397.034257,364.929 L377.749534,314.69058 L358.966453,348.576155 L378.251175,398.814576 L397.034257,364.929 L397.034257,364.929 Z M355.006579,440.748938 L335.721856,390.510517 L348.207594,367.985649 L367.492317,418.22407 L355.006579,440.748938 L355.006579,440.748938 Z M436.124954,294.407515 L416.840232,244.169094 L388.508392,295.281086 L407.793115,345.519506 L436.124954,294.407515 L436.124954,294.407515 Z M471.575282,230.453431 L456.931722,192.305654 L446.011871,191.542064 L427.59909,224.7596 L446.883813,274.998021 L471.575282,230.453431 L471.575282,230.453431 Z M491.385476,194.714895 L475.643455,193.614106 L482.33414,211.043937 L491.385476,194.714895 L491.385476,194.714895 Z M369.79666,293.972634 L353.311697,251.027838 L334.528616,284.913413 L351.013578,327.85821 L369.79666,293.972634 L369.79666,293.972634 Z M327.768982,369.792572 L311.284019,326.847775 L323.769757,304.322907 L340.25472,347.267704 L327.768982,369.792572 L327.768982,369.792572 Z M408.887357,223.451149 L395.276756,187.994319 L388.513883,187.521413 L364.070555,231.618344 L380.555518,274.56314 L408.887357,223.451149 L408.887357,223.451149 Z M427.300139,190.233612 L413.988488,189.30277 L419.646216,204.041655 L427.300139,190.233612 L427.300139,190.233612 Z M345.358823,230.309892 L327.290482,183.240255 L327.107472,183.227458 L308.429618,216.923199 L326.575741,264.195468 L345.358823,230.309892 L345.358823,230.309892 Z M303.331145,306.12983 L285.185021,258.857561 L297.670759,236.332693 L315.816883,283.604962 L303.331145,306.12983 L303.331145,306.12983 Z M369.802151,186.212961 L346.002214,184.548707 L356.117681,210.900398 L369.802151,186.212961 L369.802151,186.212961 Z M308.395739,181.919006 L294.623076,180.955928 L300.476743,196.205253 L308.395739,181.919006 L308.395739,181.919006 Z M277.232147,238.139615 L254.196233,178.129007 L275.911343,179.647476 L289.717885,215.614747 L277.232147,238.139615 L277.232147,238.139615 Z M829.02196,551.068469 L824.235712,571.799988 L799.250897,571.799988 L821.542741,531.584437 L829.02196,551.068469 L829.02196,551.068469 Z M835.860688,521.446685 L842.069572,494.553054 L832.301599,512.174943 L835.860688,521.446685 L835.860688,521.446685 Z" id="Rectangle-28" fill="#D8D8D8"></path>
                <rect id="Rectangle-1" fill="#FF5757" transform="translate(92.000000, 44.500000) rotate(14.000000) translate(-92.000000, -44.500000) " x="3" y="21" width="177.655172" height="47.1219512" rx="17"></rect>
                <g id="Wheel" transform="translate(731.000000, 657.000000)">
                    <circle id="Oval-1" fill="#3F3F3F" cx="45" cy="45" r="45"></circle>
                    <circle id="Oval-1" fill="#535353" cx="45" cy="45" r="35"></circle>
                </g>
                <g id="Wheel" transform="translate(423.000000, 657.000000)">
                    <circle id="Oval-1" fill="#3F3F3F" cx="45" cy="45" r="45"></circle>
                    <circle id="Oval-1" fill="#535353" cx="45" cy="45" r="35"></circle>
                </g>
            </g>
        </g>
    </g>
</svg>