<?xml version="1.0" encoding="utf-8"?>
<!-- Generator: Adobe Illustrator 16.0.0, SVG Export Plug-In . SVG Version: 6.00 Build 0)  -->
<!DOCTYPE svg PUBLIC "-//W3C//DTD SVG 1.1//EN" "http://www.w3.org/Graphics/SVG/1.1/DTD/svg11.dtd">
<svg version="1.1" id="Layer_1" xmlns="http://www.w3.org/2000/svg" xmlns:xlink="http://www.w3.org/1999/xlink" x="0px" y="0px"
	 width="960px" height="960px" viewBox="0 0 960 960" enable-background="new 0 0 960 960" xml:space="preserve">
<image display="none" overflow="visible" enable-background="new    " width="1950" height="1250" xlink:href="../../../../Desktop/2012-imac-gallery6_GEO_GB.jpeg"  transform="matrix(1 0 0 1 -256.6025 -220.0859)">
</image>
<path id="Outline" fill="none" stroke="#FFFFFF" stroke-width="6" stroke-miterlimit="10" d="M933.622,88.5H831.735h-698.5H31.347
	c-14.308,0-23.69,7.545-23.69,19.535v71.123v465.684v71.123c0,11.99,9.383,22.535,23.69,22.535h101.888h698.5h101.888
	c14.308,0,20.034-10.545,20.034-22.535v-71.123V179.158v-71.123C953.655,96.045,947.93,88.5,933.622,88.5z"/>
<g id="Base">
	<path fill="none" stroke="#FFFFFF" stroke-width="6" stroke-miterlimit="10" d="M387.978,738.5
		c-4.333,55.334-7.174,82.543-11.507,93.876c-4.333,11.333-23.731,18.688-37.919,31.397c-2.658,2.383-0.88,7.727,3.976,7.727
		c107.938,0,143.129,0,143.129,0"/>
	<path fill="none" stroke="#FFFFFF" stroke-width="6" stroke-miterlimit="10" d="M575.145,738.5
		c4.332,55.334,7.252,82.543,11.586,93.876c4.332,11.333,23.879,18.688,38.065,31.397c2.658,2.383,1.027,7.727-3.827,7.727
		c-107.938,0-135.312,0-135.312,0"/>
	<line fill="none" stroke="#FFFFFF" stroke-width="6" stroke-miterlimit="10" x1="387.656" y1="739.5" x2="574.655" y2="739.5"/>
	<line fill="none" stroke="#FFFFFF" stroke-width="6" stroke-miterlimit="10" x1="388.132" y1="737.5" x2="388.132" y2="737.5"/>
</g>
<rect id="Screen" x="46.656" y="127.5" fill="none" stroke="#FFFFFF" stroke-width="6" stroke-miterlimit="10" width="869" height="489"/>
<line id="Dividing_Line" fill="none" stroke="#FFFFFF" stroke-width="6" stroke-miterlimit="10" x1="9.656" y1="652.5" x2="954.655" y2="652.5"/>
<g id="Apple_Logo">
	<g>
		<path fill="#FFFFFF" d="M473.782,679.46c1.33,0,2.934,0.274,4.812,0.823c1.896,0.549,3.153,0.824,3.773,0.824
			c0.798,0,2.1-0.312,3.906-0.933c1.808-0.62,3.376-0.93,4.703-0.93c2.182,0,4.119,0.585,5.82,1.754
			c0.957,0.673,1.904,1.585,2.844,2.737c-1.418,1.205-2.453,2.274-3.107,3.216c-1.188,1.701-1.781,3.579-1.781,5.634
			c0,2.25,0.629,4.278,1.887,6.086c1.26,1.809,2.693,2.95,4.309,3.429c-0.675,2.181-1.791,4.458-3.352,6.832
			c-2.354,3.562-4.694,5.343-7.016,5.343c-0.922,0-2.197-0.293-3.827-0.879c-1.612-0.586-2.977-0.877-4.093-0.877
			s-2.418,0.305-3.906,0.903c-1.471,0.619-2.668,0.93-3.588,0.93c-2.782,0-5.511-2.354-8.188-7.066
			c-2.676-4.661-4.014-9.231-4.014-13.715c0-4.163,1.021-7.559,3.058-10.181C468.078,680.771,470.665,679.46,473.782,679.46
			 M490.528,668.988c0.068,0.229,0.112,0.434,0.133,0.609c0.018,0.179,0.024,0.354,0.024,0.532c0,1.133-0.267,2.374-0.798,3.721
			c-0.53,1.348-1.373,2.597-2.523,3.747c-0.992,0.976-1.977,1.63-2.949,1.969c-0.62,0.192-1.56,0.345-2.817,0.449
			c0.036-2.69,0.735-5.021,2.102-6.988C485.078,671.062,487.355,669.714,490.528,668.988"/>
	</g>
</g>
<circle id="Camera" fill="#FFFFFF" cx="481.735" cy="106.667" r="4.167"/>
</svg>
