<?xml version="1.0" encoding="utf-8"?>
<!-- Generator: Adobe Illustrator 16.0.0, SVG Export Plug-In . SVG Version: 6.00 Build 0)  -->
<!DOCTYPE svg PUBLIC "-//W3C//DTD SVG 1.1//EN" "http://www.w3.org/Graphics/SVG/1.1/DTD/svg11.dtd">
<svg version="1.1" id="Layer_1" xmlns="http://www.w3.org/2000/svg" xmlns:xlink="http://www.w3.org/1999/xlink" x="0px" y="0px"
	 width="1000px" height="1000px" viewBox="0 0 1000 1000" enable-background="new 0 0 1000 1000" xml:space="preserve">
<image display="none" overflow="visible" enable-background="new    " width="2033" height="2530" xlink:href="../../../../Desktop/IPad_3.png"  transform="matrix(0.394 0 0 0.394 99.3364 4.1826)">
</image>
<path id="Outline" fill="none" stroke="#FFFFFF" stroke-width="6" stroke-miterlimit="10" d="M4,151.75v54v588v54c0,11,8.5,33,33,33
	h10h35.254h834.492H953h9c24.5,0,33-22,33-33v-54v-588v-54c0-11-8.5-33-33-33h-9h-36.254H82.254H47H37
	C12.5,118.75,4,140.75,4,151.75z"/>
<g id="Home_Button">
	<path fill="none" stroke="#FFFFFF" stroke-width="4" stroke-miterlimit="10" d="M927.874,498.377
		c0,12.219,9.906,22.125,22.126,22.125s22.126-9.906,22.126-22.125c0-12.221-9.906-22.127-22.126-22.127
		S927.874,486.156,927.874,498.377z M953,490.75c2.762,0,5,2.238,5,5v5c0,2.762-2.238,5-5,5h-5c-2.762,0-5-2.238-5-5v-5
		c0-2.762,2.238-5,5-5H953z"/>
	<path fill="none" stroke="#FFFFFF" stroke-width="4" stroke-miterlimit="10" d="M943,495.75v5c0,2.762,2.238,5,5,5h5
		c2.762,0,5-2.238,5-5v-5c0-2.762-2.238-5-5-5h-5C945.238,490.75,943,492.988,943,495.75z"/>
</g>
<rect id="Screen" x="92" y="194.75" fill="none" stroke="#FFFFFF" stroke-width="6" stroke-miterlimit="10" width="814" height="609"/>
<circle id="Front_Camera" fill="#FFFFFF" cx="50.668" cy="498.376" r="6.293"/>
</svg>
