<?xml version="1.0" encoding="utf-8"?>
<!-- Generator: Adobe Illustrator 16.0.0, SVG Export Plug-In . SVG Version: 6.00 Build 0)  -->
<!DOCTYPE svg PUBLIC "-//W3C//DTD SVG 1.1//EN" "http://www.w3.org/Graphics/SVG/1.1/DTD/svg11.dtd">
<svg version="1.1" id="Layer_1" xmlns="http://www.w3.org/2000/svg" xmlns:xlink="http://www.w3.org/1999/xlink" x="0px" y="0px"
	 width="1000px" height="1000px" viewBox="0 0 1000 1000" enable-background="new 0 0 1000 1000" xml:space="preserve">
<image display="none" overflow="visible" width="2033" height="2530" xlink:href="../../../../Desktop/IPad_3.png"  transform="matrix(0.394 0 0 0.394 99.3359 4.1831)">
</image>
<path id="Outline" fill="none" stroke="#0000FF" stroke-width="6" stroke-miterlimit="10" d="M846.5,4.25h-54h-588h-54
	c-11,0-33,8.5-33,33v10v35.254v834.492v36.254v9c0,24.5,22,33,33,33h54h588h54c11,0,33-8.5,33-33v-9v-36.254V82.504V47.25v-10
	C879.5,12.75,857.5,4.25,846.5,4.25z"/>
<g id="Home_Button">
	<path fill="none" stroke="#0000FF" stroke-width="4" stroke-miterlimit="10" d="M499.873,928.124
		c-12.219,0-22.125,9.906-22.125,22.126s9.906,22.126,22.125,22.126c12.221,0,22.127-9.906,22.127-22.126
		S512.094,928.124,499.873,928.124z M507.5,953.25c0,2.762-2.238,5-5,5h-5c-2.762,0-5-2.238-5-5v-5c0-2.762,2.238-5,5-5h5
		c2.762,0,5,2.238,5,5V953.25z"/>
	<path fill="none" stroke="#0000FF" stroke-width="4" stroke-miterlimit="10" d="M502.5,943.25h-5c-2.762,0-5,2.238-5,5v5
		c0,2.762,2.238,5,5,5h5c2.762,0,5-2.238,5-5v-5C507.5,945.488,505.262,943.25,502.5,943.25z"/>
</g>
<rect id="Screen" x="194.5" y="92.25" fill="none" stroke="#0000FF" stroke-width="6" stroke-miterlimit="10" width="609" height="814"/>
<circle id="Front_Camera" fill="#0000FF" cx="499.874" cy="50.918" r="6.293"/>
</svg>
