<?xml version="1.0" encoding="utf-8"?>
<!-- Generator: Adobe Illustrator 16.0.0, SVG Export Plug-In . SVG Version: 6.00 Build 0)  -->
<!DOCTYPE svg PUBLIC "-//W3C//DTD SVG 1.1//EN" "http://www.w3.org/Graphics/SVG/1.1/DTD/svg11.dtd">
<svg version="1.1" xmlns="http://www.w3.org/2000/svg" xmlns:xlink="http://www.w3.org/1999/xlink" x="0px" y="0px" width="440px"
	 height="440px" viewBox="0 0 440 440" enable-background="new 0 0 440 440" xml:space="preserve">
<g id="Original_iPhone_5" display="none">
	
		<image display="inline" overflow="visible" width="1280" height="1280" xlink:href="../../../../Desktop/123934-1280.png"  transform="matrix(0.3725 0 0 0.3534 -17.4287 -4.1914)">
	</image>
</g>
<g id="Flat_iPhone_5">
	<path id="Screen" fill="#FF0000" d="M128,378h185V66H128V378z M131,69h179v306H131V69z"/>
	<path id="Front_Speaker" fill="#FF0000" d="M205.5,45h31c2.485,0,4.5-2.015,4.5-4.5s-2.015-4.5-4.5-4.5h-31
		c-2.485,0-4.5,2.015-4.5,4.5S203.015,45,205.5,45z"/>
	<circle id="Front_Camera" fill="#FF0000" cx="221" cy="24.5" r="3.918"/>
	<circle id="Home_Button" fill="none" stroke="#FF0000" stroke-width="3" stroke-miterlimit="10" cx="221" cy="408.5" r="20.125"/>
	<path id="Outline" fill="#FF0000" d="M329.987,31C329.723,16.211,317.789,4.277,303,4.013V4h-9.749c0-1.691,0.409-3-1.754-3
		h-31.744c-2.163,0-1.754,1.309-1.754,3H140v0.013C139.833,4.01,139.668,4,139.5,4c-15.02,0-27.22,12.044-27.487,27H112v32.61
		c-1.691,0-3-0.221-3,0.953v17.231c0,1.174,1.309,0.952,3,0.952v22.255c-1.691,0-3-0.171-3,0.733v13.282
		c0,0.905,1.309,0.733,3,0.733v21.252c-1.691,0-3-0.171-3,0.733v13.282c0,0.905,1.309,0.733,3,0.733V412h0.013
		c0.265,14.789,12.198,26.723,26.987,26.987V439h163v-0.013c0.167,0.003,0.332,0.013,0.5,0.013c15.02,0,27.22-12.044,27.487-27H330
		V31H329.987z M327,409h-0.013c-0.02,1.13-0.112,2.239-0.259,3.329c-0.438,13.008-11.114,23.421-24.229,23.421
		c-0.094,0-0.186-0.006-0.279-0.007c-0.611,0.042-1.227,0.071-1.85,0.071c-0.162,0-0.371,0.176-0.371,0.173V436H141v-0.013
		c-1.242-0.023-2.464-0.141-3.664-0.339c-12.103-1.07-21.646-11.028-22.065-23.307c-0.147-1.094-0.24-2.207-0.259-3.342H115V155.016
		v-13.282v-22.718v-13.282v-23.94V64.563V34h0.012c0.02-1.131,0.112-2.241,0.259-3.333C115.711,17.661,126.387,7.25,139.5,7.25
		c0.097,0,0.192,0.006,0.289,0.007c0.608-0.042,1.22-0.071,1.84-0.071c0.163,0,0.372-0.177,0.372-0.174V7h117.753h31.744H301v0.013
		c1.241,0.023,2.464,0.141,3.663,0.338c12.104,1.071,21.647,11.031,22.065,23.311c0.146,1.093,0.239,2.205,0.259,3.338H327V409z"/>
	<path fill="none" stroke="#FF0000" stroke-width="3" stroke-miterlimit="10" d="M228.5,413.049c0,1.906-1.545,3.451-3.451,3.451
		h-8.098c-1.906,0-3.451-1.545-3.451-3.451v-8.098c0-1.906,1.545-3.451,3.451-3.451h8.098c1.906,0,3.451,1.545,3.451,3.451V413.049z
		"/>
</g>
</svg>
