<?xml version="1.0" encoding="utf-8"?>
<!-- Generator: Adobe Illustrator 16.0.0, SVG Export Plug-In . SVG Version: 6.00 Build 0)  -->
<!DOCTYPE svg PUBLIC "-//W3C//DTD SVG 1.1//EN" "http://www.w3.org/Graphics/SVG/1.1/DTD/svg11.dtd">
<svg version="1.1" id="Layer_1" xmlns:sketch="http://www.bohemiancoding.com/sketch/ns"
	 xmlns="http://www.w3.org/2000/svg" xmlns:xlink="http://www.w3.org/1999/xlink" x="0px" y="0px" width="298px" height="420px"
	 viewBox="0 0 298 420" enable-background="new 0 0 298 420" xml:space="preserve">
<title>Slice 1</title>
<description>Created with Sketch (http://www.bohemiancoding.com/sketch)</description>
<g id="Page_1">
	<g id="Group">
		<path id="Shape" fill="#E44F26" d="M27.383,386.266L0.313,82.646h297.451l-27.099,303.571l-121.809,33.77L27.383,386.266z"/>
		<path id="Shape_1_" fill="#F1662A" d="M149.038,394.175l98.427-27.288l23.158-259.416H149.038V394.175z"/>
		<path id="Shape_2_" fill="#EBEBEB" d="M149.038,220.08H99.763l-3.404-38.132h52.679v-37.239h-0.129H55.663l0.892,9.991
			l9.152,102.616h83.331V220.08z"/>
		<path id="Shape_3_" fill="#EBEBEB" d="M149.038,316.788l-0.163,0.046l-41.472-11.199l-2.652-29.697H84.6H67.371l5.217,58.467
			l76.278,21.176l0.172-0.048V316.788z"/>
		<path id="Shape_4_" fill="#FFFFFF" d="M27.988,0.135h18.924v18.696h17.311V0.135h18.925v56.618H64.224V37.795h-17.31v18.958
			H27.988V0.135L27.988,0.135z"/>
		<path id="Shape_5_" fill="#FFFFFF" d="M108.032,18.91h-16.66V0.135h52.252V18.91h-16.667v37.843h-18.924L108.032,18.91
			L108.032,18.91L108.032,18.91z"/>
		<path id="Shape_6_" fill="#FFFFFF" d="M151.917,0.135h19.733l12.137,19.894l12.127-19.894h19.738v56.618h-18.846V28.69
			l-13.021,20.13h-0.325l-13.027-20.13v28.063h-18.518L151.917,0.135L151.917,0.135z"/>
		<path id="Shape_7_" fill="#FFFFFF" d="M225.07,0.135H244v37.903h26.611v18.714H225.07V0.135L225.07,0.135z"/>
		<path id="Shape_8_" fill="#FFFFFF" d="M148.909,220.08v37.236h45.854l-4.322,48.293l-41.532,11.211v38.742l76.34-21.158l0.56-6.29
			l8.75-98.035l0.908-9.999h-10.033H148.909z"/>
		<path id="Shape_9_" fill="#FFFFFF" d="M148.909,144.709v23.128v14.019v0.092h89.827h0.119l0.748-8.37l1.695-18.878l0.891-9.991
			H148.909z"/>
	</g>
</g>
</svg>
